<svg version="1.1" viewBox="0.0 0.0 1024.0 768.0" fill="none" stroke="none" stroke-linecap="square" stroke-miterlimit="10" xmlns:xlink="http://www.w3.org/1999/xlink" xmlns="http://www.w3.org/2000/svg"><clipPath id="p.0"><path d="m0 0l1024.0 0l0 768.0l-1024.0 0l0 -768.0z" clip-rule="nonzero"/></clipPath><g clip-path="url(#p.0)"><path fill="#000000" fill-opacity="0.0" d="m0 0l1024.0 0l0 768.0l-1024.0 0z" fill-rule="evenodd"/><path fill="#000000" fill-opacity="0.0" d="m350.90552 195.4147c-17.436493 3.4846802 -31.601715 16.881912 -45.175873 28.367447c-17.694946 14.972321 -43.272186 42.005264 -31.519684 61.98427c9.791931 16.645996 42.795837 7.97583 57.78479 -4.202118c13.762878 -11.181793 8.404205 -34.79744 8.404205 -52.53018" fill-rule="evenodd"/><path stroke="#000000" stroke-width="1.0" stroke-linejoin="round" stroke-linecap="butt" d="m350.90552 195.4147c-17.436493 3.4846802 -31.601715 16.881912 -45.175873 28.367447c-17.694946 14.972321 -43.272186 42.005264 -31.519684 61.98427c9.791931 16.645996 42.795837 7.97583 57.78479 -4.202118c13.762878 -11.181793 8.404205 -34.79744 8.404205 -52.53018" fill-rule="evenodd"/><path fill="#000000" fill-opacity="0.0" d="m323.59055 270.00787c0 10.668213 1.9380798 29.417328 12.606293 29.417328" fill-rule="evenodd"/><path stroke="#000000" stroke-width="1.0" stroke-linejoin="round" stroke-linecap="butt" d="m323.59055 270.00787c0 10.668213 1.9380798 29.417328 12.606293 29.417328" fill-rule="evenodd"/><path fill="#000000" fill-opacity="0.0" d="m355.1076 270.00787c-1.1543579 6.353302 -2.427246 12.702118 -4.2020874 18.910767" fill-rule="evenodd"/><path stroke="#000000" stroke-width="1.0" stroke-linejoin="round" stroke-linecap="butt" d="m355.1076 270.00787c-1.1543579 6.353302 -2.427246 12.702118 -4.2020874 18.910767" fill-rule="evenodd"/><path fill="#000000" fill-opacity="0.0" d="m378.2214 268.95706c-9.648071 -4.827057 -26.539185 18.636658 -18.910767 26.265106c5.481598 5.481598 19.183594 -0.1567688 22.062988 -7.3543396c1.3008118 -3.251648 -2.4779663 -12.981445 0 -10.506561c3.324829 3.3206787 2.102539 10.505341 6.304474 12.608917" fill-rule="evenodd"/><path stroke="#000000" stroke-width="1.0" stroke-linejoin="round" stroke-linecap="butt" d="m378.2214 268.95706c-9.648071 -4.827057 -26.539185 18.636658 -18.910767 26.265106c5.481598 5.481598 19.183594 -0.1567688 22.062988 -7.3543396c1.3008118 -3.251648 -2.4779663 -12.981445 0 -10.506561c3.324829 3.3206787 2.102539 10.505341 6.304474 12.608917" fill-rule="evenodd"/><path fill="#000000" fill-opacity="0.0" d="m401.33636 272.11023c-3.9635925 7.923889 -6.773712 16.507141 -8.40683 25.21524c-0.52038574 2.7747803 -1.6032715 11.172577 -1.0498657 8.404175c1.716217 -8.585419 0.07043457 -20.35727 7.3543396 -25.21521c4.9526978 -3.3031616 13.730194 13.098846 8.404175 15.758545" fill-rule="evenodd"/><path stroke="#000000" stroke-width="1.0" stroke-linejoin="round" stroke-linecap="butt" d="m401.33636 272.11023c-3.9635925 7.923889 -6.773712 16.507141 -8.40683 25.21524c-0.52038574 2.7747803 -1.6032715 11.172577 -1.0498657 8.404175c1.716217 -8.585419 0.07043457 -20.35727 7.3543396 -25.21521c4.9526978 -3.3031616 13.730194 13.098846 8.404175 15.758545" fill-rule="evenodd"/><path fill="#000000" fill-opacity="0.0" d="m420.2467 279.46457c0 18.826569 6.205963 45.236298 -9.456665 55.682404c-8.292084 5.530365 -7.501251 -18.593506 -9.454071 -28.367432" fill-rule="evenodd"/><path stroke="#000000" stroke-width="1.0" stroke-linejoin="round" stroke-linecap="butt" d="m420.2467 279.46457c0 18.826569 6.205963 45.236298 -9.456665 55.682404c-8.292084 5.530365 -7.501251 -18.593506 -9.454071 -28.367432" fill-rule="evenodd"/><path fill="#000000" fill-opacity="0.0" d="m432.85385 246.89502c0 14.362976 0.4282837 28.789398 -1.0498657 43.07611c-3.7236633 35.990326 -0.11105347 8.838165 -2.102356 16.80841c-0.53689575 2.1488953 -2.0997314 8.51944 -2.0997314 6.3044434c0 -12.824738 9.4133 -29.407898 22.062988 -31.519684c5.537964 -0.92453 5.7218018 13.697052 1.0498657 16.811035c-27.406403 18.26712 -65.925446 0.54696655 -98.758514 3.1522217c-15.925781 1.2636719 -15.638916 3.488037 -31.51706 5.2519836c-7.8311157 0.8699646 -7.8792725 0 -15.758545 0c-1.7861633 0 -6.852173 1.8486328 -5.2545776 1.0498657c28.276398 -14.138214 62.94696 -6.817627 94.55643 -7.3543396c12.624756 -0.21435547 27.717957 5.473175 37.821503 -2.0997314c4.224518 -3.1664124 -5.2532654 -0.52493286 -10.506561 -1.0498657" fill-rule="evenodd"/><path stroke="#000000" stroke-width="1.0" stroke-linejoin="round" stroke-linecap="butt" d="m432.85385 246.89502c0 14.362976 0.4282837 28.789398 -1.0498657 43.07611c-3.7236633 35.990326 -0.11105347 8.838165 -2.102356 16.80841c-0.53689575 2.1488953 -2.0997314 8.51944 -2.0997314 6.3044434c0 -12.824738 9.4133 -29.407898 22.062988 -31.519684c5.537964 -0.92453 5.7218018 13.697052 1.0498657 16.811035c-27.406403 18.26712 -65.925446 0.54696655 -98.758514 3.1522217c-15.925781 1.2636719 -15.638916 3.488037 -31.51706 5.2519836c-7.8311157 0.8699646 -7.8792725 0 -15.758545 0c-1.7861633 0 -6.852173 1.8486328 -5.2545776 1.0498657c28.276398 -14.138214 62.94696 -6.817627 94.55643 -7.3543396c12.624756 -0.21435547 27.717957 5.473175 37.821503 -2.0997314c4.224518 -3.1664124 -5.2532654 -0.52493286 -10.506561 -1.0498657" fill-rule="evenodd"/></g></svg>